<?xml version="1.0" standalone="no"?>
<!DOCTYPE svg PUBLIC "-//W3C//DTD SVG 20010904//EN"
 "http://www.w3.org/TR/2001/REC-SVG-20010904/DTD/svg10.dtd">
<svg version="1.0" xmlns="http://www.w3.org/2000/svg"
 width="400.000000pt" height="400.000000pt" viewBox="0 0 400.000000 400.000000"
 preserveAspectRatio="xMidYMid meet">
<metadata>
Created by potrace 1.14, written by Peter Selinger 2001-2017
</metadata>
<g transform="translate(0.000000,400.000000) scale(0.100000,-0.100000)"
fill="#000000" stroke="none">
<path d="M2948 3232 c-25 -27 -49 -58 -52 -70 -6 -18 -15 -22 -51 -22 -40 0
-47 -4 -89 -54 -36 -42 -46 -61 -46 -90 0 -39 -7 -43 -48 -22 -56 28 -180 65
-257 76 -44 6 -206 13 -360 17 -236 5 -292 3 -355 -10 -120 -26 -124 -26 -125
5 -2 26 -43 72 -75 83 -8 2 -28 1 -45 -3 -23 -7 -33 -4 -45 11 -26 32 -242 62
-316 44 -27 -7 -32 -5 -42 18 -11 23 -17 25 -72 25 -117 0 -187 -61 -150 -131
9 -16 7 -19 -15 -19 -41 0 -122 -30 -141 -52 -22 -23 -32 -144 -15 -175 8 -17
6 -22 -14 -33 -14 -7 -29 -28 -35 -46 -20 -58 24 -123 104 -154 20 -7 26 -16
26 -40 0 -51 64 -150 97 -150 27 0 21 -22 -21 -86 -25 -36 -57 -99 -71 -138
-15 -39 -35 -91 -45 -116 -27 -65 -101 -352 -116 -445 -26 -161 -8 -368 45
-518 40 -113 58 -128 286 -232 83 -37 173 -80 200 -95 66 -37 170 -72 340
-115 130 -34 154 -36 338 -42 143 -4 213 -3 255 7 112 25 187 50 222 73 19 13
96 59 170 102 207 120 277 176 380 305 132 166 210 339 249 545 28 151 31 191
31 387 l0 208 23 0 c29 0 60 32 55 56 -2 10 18 38 51 70 50 50 54 55 43 79
-10 22 -9 25 7 25 11 0 33 14 50 31 37 37 42 88 11 116 -18 18 -18 21 -4 63
17 49 44 165 44 192 0 9 -18 30 -40 46 -35 25 -38 31 -25 42 25 21 36 78 23
129 -15 65 -27 75 -102 77 -52 2 -70 7 -88 24 -30 29 -80 50 -116 50 -22 0
-41 -12 -74 -48z m-994 -570 c3 -5 -1 -9 -9 -9 -8 0 -12 4 -9 9 3 4 7 8 9 8 2
0 6 -4 9 -8z m986 -112 c0 -5 -5 -10 -11 -10 -5 0 -7 5 -4 10 3 6 8 10 11 10
2 0 4 -4 4 -10z m-1165 -49 c52 -24 111 -82 131 -129 12 -27 16 -76 17 -187 2
-152 -6 -230 -23 -220 -6 4 -7 -1 -3 -11 4 -12 3 -15 -5 -10 -8 4 -10 2 -6 -8
4 -9 -14 -29 -52 -58 -56 -42 -59 -43 -133 -43 -90 0 -135 18 -198 78 l-41 40
-2 176 c-1 170 9 241 32 241 5 0 6 4 3 10 -3 5 0 20 7 32 12 22 13 27 16 56 1
7 21 22 45 32 56 26 158 26 212 1z m805 -82 c43 -19 50 -29 78 -98 22 -53 31
-178 15 -195 -4 -3 -8 -27 -9 -52 0 -25 -6 -50 -13 -57 -6 -6 -11 -24 -11 -40
0 -15 -4 -26 -9 -23 -5 4 -7 -2 -5 -11 6 -26 -47 -115 -76 -130 -39 -21 -102
-9 -164 31 l-56 35 6 218 c7 232 10 249 60 286 13 10 34 20 46 22 12 3 24 8
27 13 16 24 59 24 111 1z"/>
<path d="M1610 2459 c0 -5 -11 -11 -25 -15 -14 -3 -23 -10 -20 -14 3 -5 -1
-14 -8 -22 -8 -7 -12 -19 -9 -27 2 -7 -2 -17 -9 -22 -8 -5 -9 -9 -3 -9 7 0 10
-46 9 -147 -1 -127 1 -154 18 -188 25 -53 63 -85 101 -86 17 0 39 -2 48 -4 10
-2 16 2 15 8 -1 7 4 11 11 9 6 -1 11 1 10 5 -1 5 4 21 10 36 7 16 12 39 12 51
0 12 3 26 6 29 4 4 8 22 10 42 2 19 7 42 11 50 12 21 -1 164 -20 207 -9 22
-31 46 -54 60 -44 28 -113 50 -113 37z m92 -50 c29 -15 41 -30 57 -74 26 -70
26 -121 0 -232 -28 -120 -37 -137 -78 -141 -39 -4 -75 18 -96 59 -14 25 -16
61 -13 206 3 170 4 175 27 194 26 21 41 19 103 -12z"/>
<path d="M1627 2223 c-40 -6 -55 -48 -29 -82 16 -21 29 -27 73 -29 42 -3 56 1
66 14 42 57 -19 111 -110 97z"/>
<path d="M2499 2376 c-21 -7 -35 -19 -37 -31 -2 -11 -11 -29 -21 -39 -13 -15
-13 -18 -1 -11 8 4 4 -4 -10 -20 -14 -16 -20 -25 -14 -22 9 5 12 -28 12 -122
1 -103 4 -137 19 -167 18 -38 19 -39 75 -40 31 0 55 3 52 7 -2 4 1 13 8 21 21
23 23 37 23 210 -1 179 -8 212 -50 220 -12 3 -38 0 -56 -6z m76 -43 c12 -31
16 -282 5 -322 -12 -45 -23 -56 -66 -65 -28 -6 -32 -4 -45 26 -30 71 -14 315
24 366 15 19 74 15 82 -5z"/>
<path d="M2506 2167 c-13 -9 -17 -23 -14 -52 3 -35 6 -40 31 -43 36 -4 57 13
57 48 0 18 -8 33 -25 44 -29 19 -27 19 -49 3z"/>
</g>
</svg>
